<svg id="svg" version="1.1" xmlns="http://www.w3.org/2000/svg" xmlns:xlink="http://www.w3.org/1999/xlink" width="500" height="500" viewBox="0, 0, 400,400"><g id="svgg"><path id="path0" d="M298.204 85.607 C 298.342 85.830,298.668 85.886,298.928 85.730 C 299.258 85.532,299.251 85.631,298.903 86.060 C 298.630 86.397,298.512 86.779,298.641 86.908 C 298.941 87.207,294.567 91.600,293.969 91.600 C 293.723 91.600,293.017 92.140,292.400 92.800 C 291.783 93.460,290.991 94.000,290.640 94.000 C 290.267 94.000,290.000 94.334,290.000 94.800 C 290.000 95.259,289.733 95.600,289.374 95.600 C 289.030 95.600,287.871 96.500,286.800 97.600 C 285.729 98.700,284.646 99.600,284.395 99.600 C 284.143 99.600,283.246 100.320,282.400 101.200 C 281.554 102.080,280.579 102.800,280.231 102.800 C 279.867 102.800,279.600 103.138,279.600 103.600 C 279.600 104.066,279.333 104.400,278.960 104.400 C 278.609 104.400,277.817 104.940,277.200 105.600 C 276.583 106.260,275.791 106.800,275.440 106.800 C 275.067 106.800,274.800 107.134,274.800 107.600 C 274.800 108.059,274.533 108.400,274.174 108.400 C 273.830 108.400,272.671 109.300,271.600 110.400 C 270.529 111.500,269.385 112.400,269.059 112.400 C 268.733 112.400,268.375 112.625,268.264 112.900 C 268.110 113.278,267.961 113.257,267.652 112.812 C 267.427 112.488,267.104 112.363,266.933 112.533 C 266.763 112.704,266.867 112.994,267.165 113.179 C 267.577 113.433,267.264 113.957,265.864 115.357 C 263.784 117.437,263.600 117.522,263.600 116.400 C 263.600 115.867,263.867 115.600,264.400 115.600 C 264.933 115.600,265.200 115.333,265.200 114.800 C 265.200 113.637,264.999 113.752,262.400 116.400 C 261.104 117.720,259.837 118.800,259.583 118.800 C 259.329 118.800,258.617 119.340,258.000 120.000 C 257.383 120.660,256.591 121.200,256.240 121.200 C 255.867 121.200,255.600 121.534,255.600 122.000 C 255.600 122.466,255.333 122.800,254.960 122.800 C 254.609 122.800,253.835 123.320,253.241 123.956 C 252.647 124.592,251.453 125.492,250.587 125.956 C 249.720 126.420,249.234 126.800,249.506 126.800 C 249.778 126.800,250.088 126.803,250.197 126.806 C 250.305 126.810,250.980 127.156,251.697 127.575 C 252.413 127.995,253.945 128.815,255.100 129.399 C 256.255 129.982,257.200 130.626,257.200 130.829 C 257.200 131.033,257.470 131.200,257.800 131.200 C 258.130 131.200,258.400 131.341,258.400 131.514 C 258.400 131.686,258.963 132.160,259.652 132.567 C 261.238 133.504,265.974 138.157,267.217 140.000 C 267.736 140.770,268.260 141.490,268.381 141.600 C 268.775 141.959,269.964 144.143,271.431 147.200 C 272.223 148.850,273.035 150.513,273.235 150.895 C 273.436 151.277,273.600 151.941,273.600 152.371 C 273.600 152.801,273.780 153.264,274.000 153.400 C 274.220 153.536,274.400 154.231,274.400 154.944 C 274.400 155.657,274.622 156.462,274.894 156.734 C 275.706 157.546,275.562 172.346,274.736 172.950 C 274.316 173.257,274.171 173.818,274.294 174.656 C 274.394 175.343,274.280 176.027,274.038 176.176 C 273.797 176.325,273.600 176.799,273.600 177.229 C 273.600 177.659,273.436 178.323,273.235 178.705 C 273.034 179.087,272.400 180.415,271.827 181.655 C 271.254 182.896,270.338 184.569,269.792 185.373 C 269.247 186.177,268.800 186.919,268.800 187.022 C 268.800 189.255,255.799 201.179,249.400 204.814 C 246.206 206.628,241.520 208.800,240.799 208.800 C 240.574 208.800,240.077 208.962,239.695 209.161 C 238.351 209.859,235.680 210.497,235.240 210.224 C 234.994 210.073,234.539 210.203,234.228 210.514 C 232.726 212.017,215.917 212.092,215.344 210.599 C 215.238 210.323,214.730 210.201,214.151 210.311 C 213.596 210.418,212.750 210.321,212.271 210.098 C 211.792 209.874,210.590 209.449,209.600 209.154 C 207.247 208.452,200.706 205.131,200.511 204.540 C 200.418 204.255,201.091 203.993,202.280 203.851 C 207.005 203.287,208.000 203.097,208.000 202.760 C 208.000 202.562,208.432 202.400,208.960 202.400 C 210.198 202.400,212.800 199.828,212.800 198.604 C 212.800 198.016,212.263 197.279,211.300 196.544 C 207.095 193.335,201.391 186.553,199.741 182.800 C 199.499 182.250,198.932 180.990,198.480 180.000 C 198.028 179.010,197.366 177.210,197.008 176.000 C 196.650 174.790,196.187 173.487,195.979 173.105 C 195.770 172.723,195.600 171.568,195.600 170.539 C 195.600 169.509,195.486 168.780,195.347 168.919 C 195.209 169.058,195.115 170.078,195.140 171.186 C 195.167 172.359,195.010 173.200,194.764 173.200 C 194.133 173.200,193.200 174.257,193.200 174.971 C 193.200 175.333,192.861 175.600,192.400 175.600 C 191.960 175.600,191.600 175.780,191.600 176.000 C 191.600 176.220,191.240 176.400,190.800 176.400 C 190.267 176.400,190.000 176.667,190.000 177.200 C 190.000 177.666,189.733 178.000,189.360 178.000 C 189.009 178.000,188.217 178.540,187.600 179.200 C 186.983 179.860,186.268 180.400,186.011 180.400 C 185.340 180.400,184.400 181.434,184.400 182.171 C 184.400 182.517,184.112 182.800,183.760 182.800 C 183.409 182.800,182.617 183.340,182.000 184.000 C 181.383 184.660,180.636 185.204,180.340 185.209 C 180.043 185.213,179.262 185.843,178.604 186.609 C 177.452 187.948,177.304 188.000,174.637 188.000 C 170.959 188.000,171.396 188.257,175.600 188.566 C 177.470 188.704,179.720 188.989,180.600 189.199 C 181.480 189.409,182.785 189.585,183.500 189.590 C 184.215 189.596,184.800 189.780,184.800 190.000 C 184.800 190.220,185.509 190.400,186.376 190.400 C 187.243 190.400,188.064 190.580,188.200 190.800 C 188.336 191.020,188.876 191.200,189.400 191.200 C 189.924 191.200,190.464 191.380,190.600 191.600 C 190.736 191.820,191.287 192.000,191.824 192.000 C 192.361 192.000,192.800 192.180,192.800 192.400 C 192.800 192.620,193.045 192.800,193.344 192.800 C 193.882 192.800,198.815 195.181,199.200 195.627 C 199.310 195.754,199.715 195.975,200.100 196.117 C 201.584 196.664,200.677 197.142,197.700 197.381 C 194.793 197.614,191.652 198.292,191.200 198.784 C 191.090 198.903,190.529 199.244,189.953 199.540 C 189.378 199.836,188.528 200.787,188.066 201.654 L 187.225 203.229 188.112 203.915 C 190.090 205.442,197.135 212.765,197.385 213.554 C 197.533 214.019,197.796 214.400,197.969 214.400 C 198.246 214.400,201.165 220.039,202.008 222.200 C 203.023 224.807,203.246 225.560,203.145 226.052 C 203.083 226.353,203.270 227.031,203.561 227.558 C 203.871 228.119,204.005 229.146,203.886 230.038 C 203.761 230.967,203.854 231.618,204.124 231.708 C 204.666 231.889,204.991 236.931,204.620 239.409 C 204.466 240.434,204.179 241.110,203.956 240.973 C 203.706 240.819,203.658 241.446,203.824 242.694 C 204.020 244.174,203.936 244.807,203.484 245.259 C 203.127 245.615,202.963 246.274,203.080 246.883 C 203.187 247.446,203.078 248.028,202.838 248.177 C 202.597 248.325,202.400 248.718,202.400 249.050 C 202.400 254.813,191.325 267.429,182.400 271.832 C 177.073 274.460,176.942 274.514,176.343 274.314 C 176.048 274.216,175.551 274.391,175.239 274.704 C 174.900 275.043,174.144 275.211,173.363 275.120 C 172.644 275.036,172.132 275.090,172.225 275.241 C 172.664 275.950,159.412 275.982,156.000 275.280 C 147.113 273.452,131.271 262.474,131.207 258.100 C 131.203 257.825,131.065 257.599,130.900 257.597 C 130.735 257.595,130.401 257.190,130.159 256.697 C 129.916 256.204,129.151 254.747,128.459 253.459 C 127.766 252.172,127.200 250.777,127.200 250.359 C 127.200 249.942,127.020 249.600,126.800 249.600 C 126.580 249.600,126.400 249.090,126.400 248.467 C 126.400 247.843,126.271 247.205,126.114 247.047 C 125.418 246.351,124.847 242.640,124.784 238.397 C 124.717 233.923,124.158 227.713,124.052 230.267 C 123.982 231.978,123.626 232.800,122.957 232.800 C 122.651 232.800,122.400 232.952,122.400 233.139 C 122.400 233.325,122.054 233.640,121.631 233.839 C 120.859 234.201,118.519 236.157,114.616 239.700 C 113.465 240.745,112.323 241.600,112.080 241.600 C 111.836 241.600,111.186 242.050,110.636 242.600 C 110.086 243.150,109.447 243.600,109.215 243.600 C 108.551 243.600,94.800 257.525,94.800 258.197 C 94.800 258.529,94.523 258.800,94.185 258.800 C 93.846 258.800,91.963 260.420,90.000 262.400 C 88.037 264.380,86.154 266.000,85.815 266.000 C 85.467 266.000,85.200 266.347,85.200 266.800 C 85.200 267.266,84.933 267.600,84.560 267.600 C 84.209 267.600,83.417 268.140,82.800 268.800 C 82.183 269.460,81.475 270.000,81.226 270.000 C 80.418 270.000,78.051 272.697,77.656 274.067 L 77.272 275.400 77.208 273.800 C 77.084 270.708,76.462 270.413,76.365 273.400 C 76.315 274.940,76.320 276.470,76.376 276.800 C 76.433 277.130,76.560 278.210,76.660 279.200 C 76.760 280.190,76.996 281.360,77.184 281.800 C 77.372 282.240,77.739 283.500,78.000 284.600 C 78.513 286.765,78.496 286.715,80.294 291.200 C 80.514 291.750,81.283 293.370,82.002 294.800 C 82.720 296.230,83.509 297.804,83.754 298.297 C 83.999 298.790,84.335 299.195,84.500 299.197 C 84.665 299.199,84.800 299.470,84.800 299.800 C 84.800 300.130,84.980 300.400,85.200 300.400 C 85.420 300.400,85.600 300.670,85.600 301.000 C 85.600 301.330,85.741 301.600,85.914 301.600 C 86.086 301.600,86.569 302.185,86.986 302.900 C 87.692 304.110,95.567 312.202,97.440 313.643 C 99.368 315.126,103.185 317.600,103.545 317.600 C 103.758 317.600,103.993 317.736,104.067 317.902 C 104.194 318.190,108.694 320.458,110.800 321.296 C 111.350 321.514,112.113 321.852,112.495 322.047 C 112.877 322.241,113.541 322.400,113.971 322.400 C 114.401 322.400,114.864 322.580,115.000 322.800 C 115.136 323.020,115.692 323.200,116.236 323.200 C 116.780 323.200,117.323 323.456,117.444 323.770 C 117.601 324.181,118.061 324.275,119.091 324.108 C 120.085 323.946,120.654 324.051,120.960 324.452 C 121.227 324.803,122.184 325.050,123.400 325.083 C 124.500 325.113,130.620 325.317,137.000 325.537 C 152.683 326.078,275.330 326.133,275.000 325.600 C 274.845 325.349,275.737 325.200,277.400 325.200 C 279.063 325.200,279.955 325.051,279.800 324.800 C 279.649 324.556,280.263 324.400,281.376 324.400 C 282.379 324.400,283.200 324.220,283.200 324.000 C 283.200 323.780,283.830 323.600,284.600 323.600 C 285.370 323.600,286.000 323.420,286.000 323.200 C 286.000 322.980,286.540 322.800,287.200 322.800 C 287.860 322.800,288.400 322.620,288.400 322.400 C 288.400 322.180,288.850 322.000,289.400 322.000 C 289.950 322.000,290.400 321.820,290.400 321.600 C 290.400 321.380,290.760 321.200,291.200 321.200 C 291.640 321.200,292.000 321.020,292.000 320.800 C 292.000 320.580,292.234 320.400,292.520 320.400 C 293.256 320.400,295.193 319.459,295.197 319.100 C 295.199 318.935,295.560 318.800,296.000 318.800 C 296.440 318.800,296.800 318.620,296.800 318.400 C 296.800 318.180,297.160 318.000,297.600 318.000 C 298.040 318.000,298.400 317.850,298.400 317.668 C 298.400 317.485,298.895 317.080,299.500 316.768 C 300.105 316.455,300.805 316.020,301.055 315.800 C 302.237 314.762,303.226 314.000,303.391 314.000 C 304.280 314.000,313.324 304.677,314.368 302.684 C 314.680 302.088,315.085 301.600,315.268 301.600 C 315.450 301.600,315.600 301.330,315.600 301.000 C 315.600 300.670,315.780 300.400,316.000 300.400 C 316.220 300.400,316.400 300.130,316.400 299.800 C 316.400 299.470,316.580 299.200,316.800 299.200 C 317.020 299.200,317.200 298.964,317.200 298.675 C 317.200 298.387,317.560 297.764,318.000 297.292 C 318.440 296.820,318.800 296.156,318.800 295.817 C 318.800 295.478,318.980 295.200,319.200 295.200 C 319.420 295.200,319.600 294.840,319.600 294.400 C 319.600 293.960,319.780 293.600,320.000 293.600 C 320.220 293.600,320.400 293.240,320.400 292.800 C 320.400 292.360,320.580 292.000,320.800 292.000 C 321.020 292.000,321.200 291.561,321.200 291.024 C 321.200 290.487,321.380 289.936,321.600 289.800 C 321.820 289.664,322.000 289.203,322.000 288.776 C 322.000 288.349,322.180 288.000,322.400 288.000 C 322.620 288.000,322.800 287.359,322.800 286.576 C 322.800 285.729,322.962 285.253,323.200 285.400 C 323.442 285.550,323.600 284.996,323.600 284.000 C 323.600 283.004,323.758 282.450,324.000 282.600 C 324.247 282.752,324.400 282.071,324.400 280.824 C 324.400 279.711,324.580 278.800,324.800 278.800 C 325.035 278.800,325.200 277.400,325.200 275.400 C 325.200 273.400,325.365 272.000,325.600 272.000 C 325.864 272.000,326.000 258.659,326.000 232.776 C 326.000 206.729,325.866 193.636,325.600 193.800 C 325.342 193.960,325.227 192.656,325.276 190.124 L 325.351 186.200 325.600 189.800 C 325.738 191.801,325.844 188.158,325.837 181.600 C 325.826 170.252,325.816 170.114,325.600 178.000 C 325.419 184.577,325.050 152.673,325.006 126.600 C 325.002 124.677,324.815 123.240,324.536 123.000 C 324.281 122.780,323.973 121.880,323.852 121.000 C 323.392 117.669,323.100 116.386,322.756 116.173 C 322.560 116.052,322.400 115.601,322.400 115.171 C 322.400 114.741,322.241 114.077,322.047 113.695 C 321.852 113.313,321.471 112.460,321.200 111.800 C 320.929 111.140,320.548 110.287,320.353 109.905 C 320.159 109.523,320.000 108.938,320.000 108.605 C 320.000 108.272,319.820 108.000,319.600 108.000 C 319.380 108.000,319.200 107.640,319.200 107.200 C 319.200 106.760,319.054 106.400,318.875 106.400 C 318.696 106.400,318.302 105.770,318.000 105.000 C 317.698 104.230,317.304 103.600,317.125 103.600 C 316.946 103.600,316.800 103.330,316.800 103.000 C 316.800 102.670,316.620 102.400,316.400 102.400 C 316.180 102.400,316.000 102.164,316.000 101.875 C 316.000 101.587,315.680 101.002,315.289 100.575 C 314.898 100.149,314.144 99.170,313.613 98.400 C 311.844 95.834,304.558 88.886,301.690 87.031 C 298.976 85.275,297.669 84.741,298.204 85.607 M262.800 117.429 C 262.800 117.554,262.521 117.936,262.181 118.276 C 261.400 119.057,260.931 118.666,261.660 117.842 C 262.206 117.224,262.800 117.009,262.800 117.429 M246.900 125.876 C 247.285 125.976,247.915 125.976,248.300 125.876 C 248.685 125.775,248.370 125.693,247.600 125.693 C 246.830 125.693,246.515 125.775,246.900 125.876 M168.700 189.082 C 169.195 189.178,170.005 189.178,170.500 189.082 C 170.995 188.987,170.590 188.909,169.600 188.909 C 168.610 188.909,168.205 188.987,168.700 189.082 " stroke="none" fill="#000000" fill-rule="evenodd"></path><path id="path1" d="M123.600 75.200 C 123.600 75.420,122.621 75.600,121.424 75.600 C 120.227 75.600,119.136 75.780,119.000 76.000 C 118.864 76.220,118.223 76.400,117.576 76.400 C 116.929 76.400,116.400 76.580,116.400 76.800 C 116.400 77.020,115.781 77.200,115.024 77.200 C 114.267 77.200,113.536 77.380,113.400 77.600 C 113.264 77.820,112.724 78.000,112.200 78.000 C 111.676 78.000,111.136 78.180,111.000 78.400 C 110.864 78.620,110.403 78.800,109.976 78.800 C 109.549 78.800,109.200 78.980,109.200 79.200 C 109.200 79.420,108.840 79.600,108.400 79.600 C 107.960 79.600,107.600 79.780,107.600 80.000 C 107.600 80.220,107.240 80.400,106.800 80.400 C 106.360 80.400,106.000 80.580,106.000 80.800 C 106.000 81.020,105.640 81.200,105.200 81.200 C 104.760 81.200,104.400 81.380,104.400 81.600 C 104.400 81.820,104.080 82.000,103.688 82.000 C 103.297 82.000,102.717 82.360,102.400 82.800 C 102.083 83.240,101.503 83.600,101.112 83.600 C 100.720 83.600,100.400 83.780,100.400 84.000 C 100.400 84.220,100.157 84.400,99.859 84.400 C 99.562 84.400,98.754 84.940,98.063 85.600 C 97.372 86.260,96.638 86.800,96.432 86.800 C 95.886 86.800,86.800 95.876,86.800 96.420 C 86.800 96.673,86.260 97.383,85.600 98.000 C 84.940 98.617,84.400 99.369,84.400 99.672 C 84.400 99.975,84.040 100.483,83.600 100.800 C 83.160 101.117,82.800 101.697,82.800 102.088 C 82.800 102.480,82.665 102.801,82.500 102.803 C 82.335 102.805,82.002 103.210,81.760 103.703 C 81.517 104.196,80.910 105.410,80.410 106.400 C 79.909 107.390,79.342 108.513,79.150 108.895 C 78.957 109.277,78.800 109.862,78.800 110.195 C 78.800 110.528,78.620 110.800,78.400 110.800 C 78.180 110.800,78.000 111.149,78.000 111.576 C 78.000 112.003,77.820 112.464,77.600 112.600 C 77.380 112.736,77.200 113.467,77.200 114.224 C 77.200 114.981,77.020 115.600,76.800 115.600 C 76.580 115.600,76.400 116.140,76.400 116.800 C 76.400 117.460,76.220 118.000,76.000 118.000 C 75.780 118.000,75.600 118.774,75.600 119.720 C 75.600 120.666,75.438 121.611,75.241 121.820 C 73.818 123.324,73.809 277.915,75.231 279.380 C 75.434 279.589,75.600 280.523,75.600 281.456 C 75.600 282.389,75.780 283.264,76.000 283.400 C 76.220 283.536,76.400 284.177,76.400 284.824 C 76.400 285.471,76.580 286.000,76.800 286.000 C 77.020 286.000,77.200 286.540,77.200 287.200 C 77.200 287.860,77.380 288.400,77.600 288.400 C 77.820 288.400,78.000 288.839,78.000 289.376 C 78.000 289.913,78.180 290.464,78.400 290.600 C 78.620 290.736,78.800 291.197,78.800 291.624 C 78.800 292.051,78.980 292.400,79.200 292.400 C 79.420 292.400,79.600 292.760,79.600 293.200 C 79.600 293.640,79.780 294.000,80.000 294.000 C 80.220 294.000,80.400 294.360,80.400 294.800 C 80.400 295.240,80.580 295.600,80.800 295.600 C 81.020 295.600,81.200 295.960,81.200 296.400 C 81.200 296.840,81.380 297.200,81.600 297.200 C 81.820 297.200,82.000 297.436,82.000 297.725 C 82.000 298.013,82.360 298.636,82.800 299.108 C 83.240 299.580,83.600 300.204,83.600 300.495 C 83.600 300.786,83.960 301.283,84.400 301.600 C 84.840 301.917,85.200 302.385,85.200 302.640 C 85.200 302.895,85.920 303.845,86.800 304.752 C 87.680 305.659,88.400 306.557,88.400 306.747 C 88.400 307.260,92.660 311.600,93.163 311.600 C 93.401 311.600,94.515 312.500,95.639 313.600 C 96.762 314.700,97.893 315.600,98.152 315.600 C 98.411 315.600,98.883 315.960,99.200 316.400 C 99.517 316.840,100.057 317.200,100.400 317.200 C 100.743 317.200,101.283 317.560,101.600 318.000 C 101.917 318.440,102.497 318.800,102.888 318.800 C 103.280 318.800,103.600 318.980,103.600 319.200 C 103.600 319.420,103.960 319.600,104.400 319.600 C 104.840 319.600,105.200 319.780,105.200 320.000 C 105.200 320.220,105.560 320.400,106.000 320.400 C 106.440 320.400,106.800 320.580,106.800 320.800 C 106.800 321.020,107.160 321.200,107.600 321.200 C 108.040 321.200,108.400 321.380,108.400 321.600 C 108.400 321.820,108.749 322.000,109.176 322.000 C 109.603 322.000,110.064 322.180,110.200 322.400 C 110.336 322.620,110.887 322.800,111.424 322.800 C 111.961 322.800,112.400 322.980,112.400 323.200 C 112.400 323.420,112.940 323.600,113.600 323.600 C 114.260 323.600,114.800 323.780,114.800 324.000 C 114.800 324.220,115.419 324.400,116.176 324.400 C 116.933 324.400,117.664 324.580,117.800 324.800 C 117.936 325.020,118.746 325.200,119.600 325.200 C 120.454 325.200,121.264 325.380,121.400 325.600 C 121.536 325.820,122.796 326.000,124.200 326.000 C 125.604 326.000,126.864 326.180,127.000 326.400 C 127.343 326.954,274.000 326.954,274.000 326.400 C 274.000 326.135,252.812 325.989,211.300 325.969 C 176.815 325.951,143.380 325.757,137.000 325.537 C 130.620 325.317,124.500 325.113,123.400 325.083 C 122.184 325.050,121.227 324.803,120.960 324.452 C 120.654 324.051,120.085 323.946,119.091 324.108 C 118.061 324.275,117.601 324.181,117.444 323.770 C 117.323 323.456,116.780 323.200,116.236 323.200 C 115.692 323.200,115.136 323.020,115.000 322.800 C 114.864 322.580,114.401 322.400,113.971 322.400 C 113.541 322.400,112.877 322.241,112.495 322.047 C 112.113 321.852,111.350 321.514,110.800 321.296 C 108.694 320.458,104.194 318.190,104.067 317.902 C 103.993 317.736,103.758 317.600,103.545 317.600 C 103.185 317.600,99.368 315.126,97.440 313.643 C 95.567 312.202,87.692 304.110,86.986 302.900 C 86.569 302.185,86.086 301.600,85.914 301.600 C 85.741 301.600,85.600 301.330,85.600 301.000 C 85.600 300.670,85.420 300.400,85.200 300.400 C 84.980 300.400,84.800 300.130,84.800 299.800 C 84.800 299.470,84.665 299.199,84.500 299.197 C 84.335 299.195,83.999 298.790,83.754 298.297 C 83.509 297.804,82.720 296.230,82.002 294.800 C 81.283 293.370,80.538 291.795,80.347 291.300 C 80.005 290.412,79.547 289.261,78.837 287.500 C 78.637 287.005,78.261 285.700,78.000 284.600 C 77.739 283.500,77.372 282.240,77.184 281.800 C 76.996 281.360,76.760 280.190,76.660 279.200 C 76.560 278.210,76.433 277.130,76.376 276.800 C 76.320 276.470,76.315 274.940,76.365 273.400 C 76.462 270.413,77.084 270.708,77.208 273.800 L 77.272 275.400 77.656 274.067 C 78.051 272.697,80.418 270.000,81.226 270.000 C 81.475 270.000,82.183 269.460,82.800 268.800 C 83.417 268.140,84.209 267.600,84.560 267.600 C 84.933 267.600,85.200 267.266,85.200 266.800 C 85.200 266.347,85.467 266.000,85.815 266.000 C 86.154 266.000,88.037 264.380,90.000 262.400 C 91.963 260.420,93.846 258.800,94.185 258.800 C 94.523 258.800,94.800 258.529,94.800 258.197 C 94.800 257.525,108.551 243.600,109.215 243.600 C 109.447 243.600,110.086 243.150,110.636 242.600 C 111.186 242.050,111.836 241.600,112.080 241.600 C 112.323 241.600,113.465 240.745,114.616 239.700 C 118.519 236.157,120.859 234.201,121.631 233.839 C 122.054 233.640,122.400 233.325,122.400 233.139 C 122.400 232.952,122.651 232.800,122.957 232.800 C 123.626 232.800,123.982 231.978,124.052 230.267 C 124.158 227.713,124.717 233.923,124.784 238.397 C 124.847 242.640,125.418 246.351,126.114 247.047 C 126.271 247.205,126.400 247.843,126.400 248.467 C 126.400 249.090,126.580 249.600,126.800 249.600 C 127.020 249.600,127.200 249.942,127.200 250.359 C 127.200 250.777,127.766 252.172,128.459 253.459 C 129.151 254.747,129.916 256.204,130.159 256.697 C 130.401 257.190,130.735 257.595,130.900 257.597 C 131.065 257.599,131.203 257.825,131.207 258.100 C 131.271 262.474,147.113 273.452,156.000 275.280 C 158.303 275.754,170.159 275.950,172.000 275.545 C 172.770 275.375,173.895 275.135,174.500 275.011 C 175.105 274.886,175.600 274.608,175.600 274.392 C 175.600 273.814,172.808 273.914,172.584 274.500 C 172.347 275.118,157.200 275.003,157.200 274.383 C 157.200 274.172,156.480 274.000,155.600 274.000 C 154.720 274.000,154.000 273.820,154.000 273.600 C 154.000 273.380,153.460 273.200,152.800 273.200 C 152.140 273.200,151.600 273.020,151.600 272.800 C 151.600 272.580,151.251 272.400,150.824 272.400 C 150.397 272.400,149.936 272.220,149.800 272.000 C 149.664 271.780,149.113 271.600,148.576 271.600 C 148.039 271.600,147.600 271.420,147.600 271.200 C 147.600 270.980,147.280 270.800,146.888 270.800 C 146.497 270.800,145.917 270.440,145.600 270.000 C 145.283 269.560,144.743 269.200,144.400 269.200 C 144.057 269.200,143.517 268.840,143.200 268.400 C 142.883 267.960,142.391 267.600,142.107 267.600 C 141.433 267.600,133.200 259.367,133.200 258.693 C 133.200 258.409,132.840 257.917,132.400 257.600 C 131.960 257.283,131.600 256.703,131.600 256.312 C 131.600 255.920,131.465 255.599,131.300 255.597 C 130.941 255.593,130.000 253.656,130.000 252.920 C 130.000 252.634,129.820 252.400,129.600 252.400 C 129.380 252.400,129.200 252.040,129.200 251.600 C 129.200 251.160,129.020 250.800,128.800 250.800 C 128.580 250.800,128.400 250.361,128.400 249.824 C 128.400 249.287,128.220 248.736,128.000 248.600 C 127.780 248.464,127.600 247.834,127.600 247.200 C 127.600 246.566,127.420 245.936,127.200 245.800 C 126.980 245.664,126.800 244.674,126.800 243.600 C 126.800 242.526,126.620 241.536,126.400 241.400 C 126.168 241.257,126.000 239.070,126.000 236.200 C 126.000 233.330,126.168 231.143,126.400 231.000 C 126.620 230.864,126.800 229.863,126.800 228.776 C 126.800 227.689,126.980 226.800,127.200 226.800 C 127.420 226.800,127.600 226.271,127.600 225.624 C 127.600 224.977,127.780 224.336,128.000 224.200 C 128.220 224.064,128.400 223.513,128.400 222.976 C 128.400 222.439,128.580 222.000,128.800 222.000 C 129.020 222.000,129.200 221.747,129.200 221.438 C 129.200 220.772,130.868 217.459,131.300 217.267 C 131.465 217.193,131.600 216.828,131.600 216.455 C 131.600 216.082,131.960 215.517,132.400 215.200 C 132.840 214.883,133.200 214.393,133.200 214.112 C 133.200 213.831,133.920 212.859,134.800 211.952 C 135.680 211.045,136.400 210.143,136.400 209.946 C 136.400 209.486,143.076 202.800,143.535 202.800 C 143.725 202.800,144.446 202.260,145.137 201.600 C 145.828 200.940,146.598 200.400,146.849 200.400 C 147.101 200.400,147.598 200.085,147.954 199.700 C 148.691 198.904,150.658 197.659,151.700 197.329 C 152.085 197.207,152.400 196.948,152.400 196.753 C 152.400 196.559,152.760 196.400,153.200 196.400 C 153.640 196.400,154.000 196.220,154.000 196.000 C 154.000 195.780,154.360 195.600,154.800 195.600 C 155.240 195.600,155.600 195.420,155.600 195.200 C 155.600 194.980,155.960 194.800,156.400 194.800 C 156.840 194.800,157.200 194.620,157.200 194.400 C 157.200 194.180,157.740 194.000,158.400 194.000 C 159.060 194.000,159.600 193.820,159.600 193.600 C 159.600 193.380,160.140 193.200,160.800 193.200 C 161.460 193.200,162.000 193.020,162.000 192.800 C 162.000 192.580,162.540 192.400,163.200 192.400 C 163.860 192.400,164.400 192.220,164.400 192.000 C 164.400 191.780,165.300 191.600,166.400 191.600 C 167.500 191.600,168.400 191.420,168.400 191.200 C 168.400 190.948,171.059 190.800,175.576 190.800 C 179.929 190.800,182.850 190.957,183.000 191.200 C 183.136 191.420,184.047 191.600,185.024 191.600 C 186.001 191.600,186.800 191.780,186.800 192.000 C 186.800 192.220,187.520 192.400,188.400 192.400 C 189.280 192.400,190.000 192.580,190.000 192.800 C 190.000 193.020,190.360 193.200,190.800 193.200 C 191.240 193.200,191.600 193.380,191.600 193.600 C 191.600 193.820,192.140 194.000,192.800 194.000 C 193.460 194.000,194.000 194.180,194.000 194.400 C 194.000 194.620,194.360 194.800,194.800 194.800 C 195.240 194.800,195.600 194.980,195.600 195.200 C 195.600 195.420,195.960 195.600,196.400 195.600 C 196.840 195.600,197.200 195.780,197.200 196.000 C 197.200 196.220,196.300 196.400,195.200 196.400 C 194.100 196.400,193.200 196.580,193.200 196.800 C 193.200 197.020,192.660 197.200,192.000 197.200 C 191.340 197.200,190.800 197.380,190.800 197.600 C 190.800 197.820,190.524 198.000,190.187 198.000 C 189.391 198.000,186.800 200.591,186.800 201.387 C 186.800 201.724,186.620 202.000,186.400 202.000 C 185.453 202.000,186.006 204.268,187.091 204.832 C 188.507 205.569,196.400 213.433,196.400 214.107 C 196.400 214.391,196.760 214.883,197.200 215.200 C 197.640 215.517,198.000 216.097,198.000 216.488 C 198.000 216.880,198.180 217.200,198.400 217.200 C 198.620 217.200,198.800 217.560,198.800 218.000 C 198.800 218.440,198.980 218.800,199.200 218.800 C 199.420 218.800,199.600 219.160,199.600 219.600 C 199.600 220.040,199.780 220.400,200.000 220.400 C 200.220 220.400,200.400 220.760,200.400 221.200 C 200.400 221.640,200.580 222.000,200.800 222.000 C 201.020 222.000,201.200 222.540,201.200 223.200 C 201.200 223.860,201.380 224.400,201.600 224.400 C 201.820 224.400,202.000 225.019,202.000 225.776 C 202.000 226.533,202.180 227.264,202.400 227.400 C 202.620 227.536,202.800 228.436,202.800 229.400 C 202.800 230.364,202.980 231.264,203.200 231.400 C 203.429 231.541,203.600 233.596,203.600 236.200 C 203.600 240.891,204.142 242.596,204.620 239.409 C 204.991 236.931,204.666 231.889,204.124 231.708 C 203.854 231.618,203.761 230.967,203.886 230.038 C 204.005 229.146,203.871 228.119,203.561 227.558 C 203.270 227.031,203.083 226.353,203.145 226.052 C 203.246 225.560,203.023 224.807,202.008 222.200 C 201.165 220.039,198.246 214.400,197.969 214.400 C 197.796 214.400,197.533 214.019,197.385 213.554 C 197.135 212.765,190.090 205.442,188.112 203.915 L 187.225 203.229 188.066 201.654 C 188.528 200.787,189.378 199.836,189.953 199.540 C 190.529 199.244,191.090 198.903,191.200 198.784 C 191.652 198.292,194.793 197.614,197.700 197.381 C 200.677 197.142,201.584 196.664,200.100 196.117 C 199.715 195.975,199.310 195.754,199.200 195.627 C 198.815 195.181,193.882 192.800,193.344 192.800 C 193.045 192.800,192.800 192.620,192.800 192.400 C 192.800 192.180,192.361 192.000,191.824 192.000 C 191.287 192.000,190.736 191.820,190.600 191.600 C 190.464 191.380,189.924 191.200,189.400 191.200 C 188.876 191.200,188.336 191.020,188.200 190.800 C 188.064 190.580,187.243 190.400,186.376 190.400 C 185.509 190.400,184.800 190.220,184.800 190.000 C 184.800 189.780,184.215 189.596,183.500 189.590 C 182.785 189.585,181.480 189.409,180.600 189.199 C 179.720 188.989,177.470 188.704,175.600 188.566 C 171.396 188.257,170.959 188.000,174.637 188.000 C 177.304 188.000,177.452 187.948,178.604 186.609 C 179.262 185.843,180.043 185.213,180.340 185.209 C 180.636 185.204,181.383 184.660,182.000 184.000 C 182.617 183.340,183.409 182.800,183.760 182.800 C 184.112 182.800,184.400 182.517,184.400 182.171 C 184.400 181.434,185.340 180.400,186.011 180.400 C 186.268 180.400,186.983 179.860,187.600 179.200 C 188.217 178.540,189.009 178.000,189.360 178.000 C 189.733 178.000,190.000 177.666,190.000 177.200 C 190.000 176.667,190.267 176.400,190.800 176.400 C 191.240 176.400,191.600 176.220,191.600 176.000 C 191.600 175.780,191.960 175.600,192.400 175.600 C 192.861 175.600,193.200 175.333,193.200 174.971 C 193.200 174.257,194.133 173.200,194.764 173.200 C 195.010 173.200,195.167 172.359,195.140 171.186 C 195.115 170.078,195.209 169.058,195.347 168.919 C 195.486 168.780,195.600 169.509,195.600 170.539 C 195.600 171.568,195.770 172.723,195.979 173.105 C 196.187 173.487,196.650 174.790,197.008 176.000 C 197.366 177.210,198.028 179.010,198.480 180.000 C 198.932 180.990,199.499 182.250,199.741 182.800 C 201.391 186.553,207.095 193.335,211.300 196.544 C 212.263 197.279,212.800 198.016,212.800 198.604 C 212.800 199.828,210.198 202.400,208.960 202.400 C 208.432 202.400,208.000 202.562,208.000 202.760 C 208.000 203.097,207.005 203.287,202.280 203.851 C 201.091 203.993,200.418 204.255,200.511 204.540 C 200.708 205.135,207.263 208.458,209.600 209.147 C 210.590 209.439,211.713 209.840,212.095 210.039 C 213.207 210.617,214.800 210.477,214.800 209.800 C 214.800 209.400,214.400 209.200,213.600 209.200 C 212.940 209.200,212.400 209.020,212.400 208.800 C 212.400 208.580,211.860 208.400,211.200 208.400 C 210.540 208.400,210.000 208.220,210.000 208.000 C 210.000 207.780,209.460 207.600,208.800 207.600 C 208.140 207.600,207.600 207.420,207.600 207.200 C 207.600 206.980,207.240 206.800,206.800 206.800 C 206.360 206.800,206.000 206.620,206.000 206.400 C 206.000 206.180,205.640 206.000,205.200 206.000 C 204.760 206.000,204.400 205.820,204.400 205.600 C 204.400 205.380,204.760 205.200,205.200 205.200 C 205.640 205.200,206.000 205.020,206.000 204.800 C 206.000 204.580,206.540 204.400,207.200 204.400 C 207.860 204.400,208.400 204.220,208.400 204.000 C 208.400 203.780,208.760 203.600,209.200 203.600 C 209.640 203.600,210.000 203.420,210.000 203.200 C 210.000 202.980,210.276 202.800,210.613 202.800 C 213.304 202.800,215.195 197.152,212.900 195.968 C 211.543 195.267,204.400 188.114,204.400 187.455 C 204.400 187.192,204.040 186.717,203.600 186.400 C 203.160 186.083,202.800 185.503,202.800 185.112 C 202.800 184.720,202.620 184.400,202.400 184.400 C 202.180 184.400,202.000 184.040,202.000 183.600 C 202.000 183.160,201.820 182.800,201.600 182.800 C 201.380 182.800,201.200 182.440,201.200 182.000 C 201.200 181.560,201.020 181.200,200.800 181.200 C 200.580 181.200,200.400 180.840,200.400 180.400 C 200.400 179.960,200.220 179.600,200.000 179.600 C 199.780 179.600,199.600 179.161,199.600 178.624 C 199.600 178.087,199.420 177.536,199.200 177.400 C 198.980 177.264,198.800 176.623,198.800 175.976 C 198.800 175.329,198.620 174.800,198.400 174.800 C 198.180 174.800,198.000 174.091,198.000 173.224 C 198.000 172.357,197.820 171.536,197.600 171.400 C 197.361 171.253,197.200 168.670,197.200 165.000 C 197.200 161.330,197.361 158.747,197.600 158.600 C 197.820 158.464,198.000 157.553,198.000 156.576 C 198.000 155.599,198.180 154.800,198.400 154.800 C 198.620 154.800,198.800 154.271,198.800 153.624 C 198.800 152.977,198.980 152.336,199.200 152.200 C 199.420 152.064,199.600 151.513,199.600 150.976 C 199.600 150.439,199.780 150.000,200.000 150.000 C 200.220 150.000,200.400 149.640,200.400 149.200 C 200.400 148.760,200.580 148.400,200.800 148.400 C 201.020 148.400,201.200 148.040,201.200 147.600 C 201.200 147.160,201.380 146.800,201.600 146.800 C 201.820 146.800,202.000 146.440,202.000 146.000 C 202.000 145.560,202.180 145.200,202.400 145.200 C 202.620 145.200,202.800 144.928,202.800 144.596 C 202.800 144.264,203.340 143.428,204.000 142.737 C 204.660 142.046,205.200 141.325,205.200 141.135 C 205.200 140.587,211.699 134.261,212.908 133.632 C 213.509 133.320,214.000 132.915,214.000 132.732 C 214.000 132.550,214.236 132.400,214.525 132.400 C 214.813 132.400,215.436 132.040,215.908 131.600 C 216.380 131.160,217.044 130.800,217.383 130.800 C 217.722 130.800,218.000 130.620,218.000 130.400 C 218.000 130.180,218.360 130.000,218.800 130.000 C 219.240 130.000,219.600 129.820,219.600 129.600 C 219.600 129.380,219.949 129.200,220.376 129.200 C 220.803 129.200,221.264 129.020,221.400 128.800 C 221.536 128.580,222.087 128.400,222.624 128.400 C 223.161 128.400,223.600 128.220,223.600 128.000 C 223.600 127.780,224.219 127.600,224.976 127.600 C 225.733 127.600,226.464 127.420,226.600 127.200 C 226.736 126.980,227.546 126.800,228.400 126.800 C 229.254 126.800,230.064 126.620,230.200 126.400 C 230.345 126.165,232.671 126.000,235.824 126.000 C 239.141 126.000,241.200 126.153,241.200 126.400 C 241.200 126.620,242.100 126.800,243.200 126.800 C 244.300 126.800,245.200 126.980,245.200 127.200 C 245.200 127.420,245.740 127.600,246.400 127.600 C 247.060 127.600,247.600 127.780,247.600 128.000 C 247.600 128.220,248.140 128.400,248.800 128.400 C 249.460 128.400,250.000 128.580,250.000 128.800 C 250.000 129.020,250.360 129.200,250.800 129.200 C 251.240 129.200,251.600 129.380,251.600 129.600 C 251.600 129.820,251.834 130.000,252.120 130.000 C 252.856 130.000,254.793 130.941,254.797 131.300 C 254.799 131.465,255.160 131.600,255.600 131.600 C 256.040 131.600,256.400 131.750,256.400 131.932 C 256.400 132.115,256.895 132.520,257.500 132.832 C 258.105 133.145,259.077 133.895,259.660 134.500 C 260.244 135.105,260.884 135.600,261.082 135.600 C 261.594 135.600,264.400 138.226,264.400 138.706 C 264.400 138.925,265.120 139.845,266.000 140.752 C 266.880 141.659,267.600 142.631,267.600 142.912 C 267.600 143.193,267.960 143.683,268.400 144.000 C 268.840 144.317,269.200 144.897,269.200 145.288 C 269.200 145.680,269.380 146.000,269.600 146.000 C 269.820 146.000,270.000 146.360,270.000 146.800 C 270.000 147.240,270.180 147.600,270.400 147.600 C 270.620 147.600,270.800 147.960,270.800 148.400 C 270.800 148.840,270.980 149.200,271.200 149.200 C 271.420 149.200,271.600 149.639,271.600 150.176 C 271.600 150.713,271.780 151.264,272.000 151.400 C 272.220 151.536,272.400 152.076,272.400 152.600 C 272.400 153.124,272.580 153.664,272.800 153.800 C 273.020 153.936,273.200 154.451,273.200 154.944 C 273.200 155.437,273.361 156.011,273.558 156.220 C 274.696 157.427,274.693 173.200,273.555 173.200 C 273.360 173.200,273.200 173.729,273.200 174.376 C 273.200 175.023,273.020 175.664,272.800 175.800 C 272.580 175.936,272.400 176.566,272.400 177.200 C 272.400 177.834,272.220 178.464,272.000 178.600 C 271.780 178.736,271.600 179.197,271.600 179.624 C 271.600 180.051,271.420 180.400,271.200 180.400 C 270.980 180.400,270.800 180.634,270.800 180.920 C 270.800 181.656,269.859 183.593,269.500 183.597 C 269.335 183.599,269.200 183.960,269.200 184.400 C 269.200 184.840,269.050 185.200,268.868 185.200 C 268.685 185.200,268.280 185.695,267.968 186.300 C 267.655 186.905,266.905 187.877,266.300 188.460 C 265.695 189.044,265.200 189.705,265.200 189.930 C 265.200 190.499,256.947 198.800,256.381 198.800 C 256.128 198.800,255.417 199.340,254.800 200.000 C 254.183 200.660,253.431 201.200,253.128 201.200 C 252.825 201.200,252.317 201.560,252.000 202.000 C 251.683 202.440,251.103 202.800,250.712 202.800 C 250.320 202.800,250.000 202.980,250.000 203.200 C 250.000 203.420,249.640 203.600,249.200 203.600 C 248.760 203.600,248.400 203.747,248.400 203.926 C 248.400 204.392,245.269 206.000,244.362 206.000 C 243.943 206.000,243.600 206.180,243.600 206.400 C 243.600 206.620,243.240 206.800,242.800 206.800 C 242.360 206.800,242.000 206.980,242.000 207.200 C 242.000 207.420,241.460 207.600,240.800 207.600 C 240.140 207.600,239.600 207.780,239.600 208.000 C 239.600 208.220,239.060 208.400,238.400 208.400 C 237.740 208.400,237.200 208.580,237.200 208.800 C 237.200 209.020,236.581 209.200,235.824 209.200 C 235.067 209.200,234.336 209.380,234.200 209.600 C 234.064 209.820,232.883 210.000,231.576 210.000 C 230.259 210.000,229.200 210.178,229.200 210.400 C 229.200 210.642,227.475 210.800,224.824 210.800 C 222.337 210.800,220.340 210.627,220.200 210.400 C 219.819 209.784,215.094 209.881,215.299 210.500 C 215.811 212.044,232.686 212.057,234.228 210.514 C 234.539 210.203,234.994 210.073,235.240 210.224 C 235.680 210.497,238.351 209.859,239.695 209.161 C 240.077 208.962,240.574 208.800,240.799 208.800 C 241.520 208.800,246.206 206.628,249.400 204.814 C 255.799 201.179,268.800 189.255,268.800 187.022 C 268.800 186.919,269.247 186.177,269.792 185.373 C 270.338 184.569,271.254 182.896,271.827 181.655 C 272.400 180.415,273.034 179.087,273.235 178.705 C 273.436 178.323,273.600 177.659,273.600 177.229 C 273.600 176.799,273.797 176.325,274.038 176.176 C 274.280 176.027,274.394 175.343,274.294 174.656 C 274.171 173.818,274.316 173.257,274.736 172.950 C 275.562 172.346,275.706 157.546,274.894 156.734 C 274.622 156.462,274.400 155.657,274.400 154.944 C 274.400 154.231,274.220 153.536,274.000 153.400 C 273.780 153.264,273.600 152.801,273.600 152.371 C 273.600 151.941,273.436 151.277,273.235 150.895 C 273.035 150.513,272.223 148.850,271.431 147.200 C 269.964 144.143,268.775 141.959,268.381 141.600 C 268.260 141.490,267.736 140.770,267.217 140.000 C 265.974 138.157,261.238 133.504,259.652 132.567 C 258.963 132.160,258.400 131.686,258.400 131.514 C 258.400 131.341,258.130 131.200,257.800 131.200 C 257.470 131.200,257.200 131.033,257.200 130.829 C 257.200 130.626,256.255 129.982,255.100 129.399 C 253.945 128.815,252.370 127.971,251.600 127.521 C 250.830 127.072,250.155 126.726,250.100 126.752 C 249.034 127.261,249.463 126.558,250.587 125.956 C 251.453 125.492,252.647 124.592,253.241 123.956 C 253.835 123.320,254.609 122.800,254.960 122.800 C 255.333 122.800,255.600 122.466,255.600 122.000 C 255.600 121.534,255.867 121.200,256.240 121.200 C 256.591 121.200,257.383 120.660,258.000 120.000 C 258.617 119.340,259.329 118.800,259.583 118.800 C 259.837 118.800,261.104 117.720,262.400 116.400 C 264.999 113.752,265.200 113.637,265.200 114.800 C 265.200 115.333,264.933 115.600,264.400 115.600 C 263.867 115.600,263.600 115.867,263.600 116.400 C 263.600 117.522,263.784 117.437,265.864 115.357 C 267.264 113.957,267.577 113.433,267.165 113.179 C 266.867 112.994,266.763 112.704,266.933 112.533 C 267.104 112.363,267.427 112.488,267.652 112.812 C 267.961 113.257,268.110 113.278,268.264 112.900 C 268.375 112.625,268.733 112.400,269.059 112.400 C 269.385 112.400,270.529 111.500,271.600 110.400 C 272.671 109.300,273.830 108.400,274.174 108.400 C 274.533 108.400,274.800 108.059,274.800 107.600 C 274.800 107.134,275.067 106.800,275.440 106.800 C 275.791 106.800,276.583 106.260,277.200 105.600 C 277.817 104.940,278.609 104.400,278.960 104.400 C 279.333 104.400,279.600 104.066,279.600 103.600 C 279.600 103.138,279.867 102.800,280.231 102.800 C 280.579 102.800,281.554 102.080,282.400 101.200 C 283.246 100.320,284.143 99.600,284.395 99.600 C 284.646 99.600,285.729 98.700,286.800 97.600 C 287.871 96.500,289.030 95.600,289.374 95.600 C 289.733 95.600,290.000 95.259,290.000 94.800 C 290.000 94.334,290.267 94.000,290.640 94.000 C 290.991 94.000,291.783 93.460,292.400 92.800 C 293.017 92.140,293.723 91.600,293.969 91.600 C 294.567 91.600,298.941 87.207,298.641 86.908 C 298.512 86.779,298.630 86.397,298.903 86.060 C 299.251 85.631,299.258 85.532,298.928 85.730 C 298.668 85.886,298.342 85.830,298.204 85.607 C 297.669 84.741,298.976 85.275,301.690 87.031 C 304.558 88.886,311.844 95.834,313.613 98.400 C 314.144 99.170,314.898 100.149,315.289 100.575 C 315.680 101.002,316.000 101.587,316.000 101.875 C 316.000 102.164,316.180 102.400,316.400 102.400 C 316.620 102.400,316.800 102.670,316.800 103.000 C 316.800 103.330,316.946 103.600,317.125 103.600 C 317.304 103.600,317.698 104.230,318.000 105.000 C 318.302 105.770,318.696 106.400,318.875 106.400 C 319.054 106.400,319.200 106.760,319.200 107.200 C 319.200 107.640,319.380 108.000,319.600 108.000 C 319.820 108.000,320.000 108.272,320.000 108.605 C 320.000 108.938,320.159 109.523,320.353 109.905 C 320.548 110.287,320.929 111.140,321.200 111.800 C 321.471 112.460,321.852 113.313,322.047 113.695 C 322.241 114.077,322.400 114.741,322.400 115.171 C 322.400 115.601,322.560 116.052,322.756 116.173 C 323.100 116.386,323.392 117.669,323.852 121.000 C 323.973 121.880,324.281 122.780,324.536 123.000 C 324.815 123.240,325.002 124.677,325.006 126.600 C 325.060 158.294,325.385 184.921,325.621 177.000 C 326.069 161.957,326.054 123.680,325.600 123.400 C 325.380 123.264,325.200 122.274,325.200 121.200 C 325.200 120.126,325.020 119.136,324.800 119.000 C 324.580 118.864,324.400 118.144,324.400 117.400 C 324.400 116.656,324.220 115.936,324.000 115.800 C 323.780 115.664,323.600 115.201,323.600 114.771 C 323.600 114.341,323.420 113.632,323.200 113.195 C 322.980 112.758,322.620 112.042,322.400 111.605 C 322.180 111.168,322.000 110.448,322.000 110.005 C 322.000 109.562,321.820 109.200,321.600 109.200 C 321.380 109.200,321.200 108.840,321.200 108.400 C 321.200 107.960,321.020 107.600,320.800 107.600 C 320.580 107.600,320.400 107.240,320.400 106.800 C 320.400 106.360,320.220 106.000,320.000 106.000 C 319.780 106.000,319.600 105.640,319.600 105.200 C 319.600 104.760,319.420 104.400,319.200 104.400 C 318.980 104.400,318.800 104.164,318.800 103.875 C 318.800 103.587,318.440 102.964,318.000 102.492 C 317.560 102.020,317.200 101.396,317.200 101.105 C 317.200 100.814,316.840 100.317,316.400 100.000 C 315.960 99.683,315.600 99.175,315.600 98.872 C 315.600 98.569,315.060 97.817,314.400 97.200 C 313.740 96.583,313.200 95.898,313.200 95.676 C 313.200 95.133,306.561 88.400,306.025 88.400 C 305.792 88.400,304.859 87.680,303.952 86.800 C 303.045 85.920,302.095 85.200,301.840 85.200 C 301.585 85.200,301.117 84.840,300.800 84.400 C 300.483 83.960,299.903 83.600,299.512 83.600 C 299.120 83.600,298.800 83.448,298.800 83.263 C 298.800 83.077,297.945 82.492,296.900 81.963 C 295.855 81.433,294.940 80.865,294.867 80.700 C 294.793 80.535,294.388 80.400,293.967 80.400 C 293.545 80.400,293.200 80.220,293.200 80.000 C 293.200 79.780,292.761 79.600,292.224 79.600 C 291.687 79.600,291.136 79.420,291.000 79.200 C 290.864 78.980,290.403 78.800,289.976 78.800 C 289.549 78.800,289.200 78.620,289.200 78.400 C 289.200 78.180,288.660 78.000,288.000 78.000 C 287.340 78.000,286.800 77.820,286.800 77.600 C 286.800 77.380,286.260 77.200,285.600 77.200 C 284.940 77.200,284.400 77.020,284.400 76.800 C 284.400 76.580,283.781 76.400,283.024 76.400 C 282.267 76.400,281.536 76.220,281.400 76.000 C 281.264 75.780,280.274 75.600,279.200 75.600 C 278.126 75.600,277.136 75.420,277.000 75.200 C 276.837 74.936,250.796 74.800,200.176 74.800 C 149.392 74.800,123.600 74.935,123.600 75.200 M261.660 117.842 C 260.931 118.666,261.400 119.057,262.181 118.276 C 262.521 117.936,262.800 117.554,262.800 117.429 C 262.800 117.009,262.206 117.224,261.660 117.842 M248.300 125.876 C 247.915 125.976,247.285 125.976,246.900 125.876 C 246.515 125.775,246.830 125.693,247.600 125.693 C 248.370 125.693,248.685 125.775,248.300 125.876 M325.200 190.200 C 325.200 192.363,325.316 194.018,325.457 193.876 C 325.736 193.598,325.658 186.725,325.373 186.440 C 325.278 186.345,325.200 188.037,325.200 190.200 M170.500 189.082 C 170.005 189.178,169.195 189.178,168.700 189.082 C 168.205 188.987,168.610 188.909,169.600 188.909 C 170.590 188.909,170.995 188.987,170.500 189.082 M203.087 241.446 C 202.929 241.604,202.800 242.503,202.800 243.443 C 202.800 244.383,202.620 245.264,202.400 245.400 C 202.180 245.536,202.000 246.166,202.000 246.800 C 202.000 247.434,201.820 248.064,201.600 248.200 C 201.380 248.336,201.200 248.876,201.200 249.400 C 201.200 249.924,201.020 250.464,200.800 250.600 C 200.580 250.736,200.400 251.197,200.400 251.624 C 200.400 252.051,200.220 252.400,200.000 252.400 C 199.780 252.400,199.600 252.760,199.600 253.200 C 199.600 253.640,199.420 254.000,199.200 254.000 C 198.980 254.000,198.800 254.360,198.800 254.800 C 198.800 255.240,198.620 255.600,198.400 255.600 C 198.180 255.600,198.000 255.825,197.999 256.100 C 197.999 256.375,197.459 257.230,196.800 258.000 C 196.141 258.770,195.601 259.537,195.601 259.705 C 195.599 260.234,188.035 267.600,187.493 267.600 C 187.209 267.600,186.717 267.960,186.400 268.400 C 186.083 268.840,185.503 269.200,185.112 269.200 C 184.720 269.200,184.400 269.380,184.400 269.600 C 184.400 269.820,184.164 270.000,183.875 270.000 C 183.587 270.000,182.964 270.360,182.492 270.800 C 182.020 271.240,181.176 271.600,180.617 271.600 C 180.058 271.600,179.600 271.780,179.600 272.000 C 179.600 272.220,179.240 272.400,178.800 272.400 C 178.360 272.400,178.000 272.580,178.000 272.800 C 178.000 273.020,177.460 273.200,176.800 273.200 C 175.529 273.200,175.173 273.861,176.227 274.266 C 176.918 274.531,176.972 274.510,182.400 271.832 C 191.325 267.429,202.400 254.813,202.400 249.050 C 202.400 248.718,202.597 248.325,202.838 248.177 C 203.078 248.028,203.187 247.446,203.080 246.883 C 202.968 246.298,203.123 245.620,203.442 245.301 C 204.032 244.711,204.135 243.085,203.659 241.879 C 203.503 241.483,203.246 241.288,203.087 241.446 M325.200 275.024 C 325.200 276.937,325.347 277.956,325.600 277.800 C 325.820 277.664,326.000 276.303,326.000 274.776 C 326.000 273.192,325.828 272.000,325.600 272.000 C 325.369 272.000,325.200 273.275,325.200 275.024 M324.400 280.400 C 324.400 281.280,324.580 282.000,324.800 282.000 C 325.020 282.000,325.200 281.280,325.200 280.400 C 325.200 279.520,325.020 278.800,324.800 278.800 C 324.580 278.800,324.400 279.520,324.400 280.400 M323.600 283.776 C 323.600 284.559,323.780 285.200,324.000 285.200 C 324.220 285.200,324.400 284.671,324.400 284.024 C 324.400 283.377,324.220 282.736,324.000 282.600 C 323.762 282.453,323.600 282.929,323.600 283.776 M322.800 286.376 C 322.800 287.049,322.980 287.600,323.200 287.600 C 323.420 287.600,323.600 287.161,323.600 286.624 C 323.600 286.087,323.420 285.536,323.200 285.400 C 322.967 285.256,322.800 285.663,322.800 286.376 M322.000 288.776 C 322.000 289.203,321.820 289.664,321.600 289.800 C 321.380 289.936,321.200 290.397,321.200 290.824 C 321.200 291.251,321.380 291.600,321.600 291.600 C 321.820 291.600,322.000 291.240,322.000 290.800 C 322.000 290.360,322.180 290.000,322.400 290.000 C 322.620 290.000,322.800 289.550,322.800 289.000 C 322.800 288.450,322.620 288.000,322.400 288.000 C 322.180 288.000,322.000 288.349,322.000 288.776 M320.400 292.800 C 320.400 293.240,320.220 293.600,320.000 293.600 C 319.780 293.600,319.600 293.960,319.600 294.400 C 319.600 294.840,319.420 295.200,319.200 295.200 C 318.980 295.200,318.800 295.478,318.800 295.817 C 318.800 296.156,318.440 296.820,318.000 297.292 C 317.560 297.764,317.200 298.387,317.200 298.675 C 317.200 298.964,317.020 299.200,316.800 299.200 C 316.580 299.200,316.400 299.470,316.400 299.800 C 316.400 300.130,316.220 300.400,316.000 300.400 C 315.780 300.400,315.600 300.670,315.600 301.000 C 315.600 301.330,315.450 301.600,315.268 301.600 C 315.085 301.600,314.680 302.088,314.368 302.684 C 313.167 304.977,304.251 314.000,303.186 314.000 C 302.974 314.000,302.800 314.150,302.800 314.332 C 302.800 314.515,302.350 314.906,301.800 315.200 C 300.729 315.773,300.474 316.400,301.312 316.400 C 301.593 316.400,302.083 316.040,302.400 315.600 C 302.717 315.160,303.195 314.800,303.463 314.800 C 304.019 314.800,314.000 305.022,314.000 304.477 C 314.000 304.280,314.540 303.554,315.200 302.863 C 315.860 302.172,316.400 301.375,316.400 301.092 C 316.400 300.809,316.760 300.317,317.200 300.000 C 317.640 299.683,318.000 299.103,318.000 298.712 C 318.000 298.320,318.159 298.000,318.353 298.000 C 318.548 298.000,318.807 297.685,318.929 297.300 C 319.051 296.915,319.459 296.060,319.836 295.400 C 321.304 292.830,321.539 292.000,320.800 292.000 C 320.580 292.000,320.400 292.360,320.400 292.800 M299.100 316.957 C 298.715 317.249,298.400 317.603,298.400 317.744 C 298.400 318.201,299.242 318.015,299.829 317.429 C 300.888 316.369,300.340 316.015,299.100 316.957 M296.800 318.400 C 296.800 318.620,296.440 318.800,296.000 318.800 C 295.560 318.800,295.199 318.935,295.197 319.100 C 295.193 319.459,293.256 320.400,292.520 320.400 C 292.234 320.400,292.000 320.580,292.000 320.800 C 292.000 321.020,291.640 321.200,291.200 321.200 C 290.760 321.200,290.400 321.380,290.400 321.600 C 290.400 321.820,290.850 322.000,291.400 322.000 C 291.950 322.000,292.400 321.820,292.400 321.600 C 292.400 321.380,292.760 321.200,293.200 321.200 C 293.640 321.200,294.000 321.020,294.000 320.800 C 294.000 320.580,294.360 320.400,294.800 320.400 C 295.240 320.400,295.600 320.264,295.600 320.098 C 295.600 319.931,296.140 319.556,296.800 319.264 C 298.071 318.701,298.404 318.000,297.400 318.000 C 297.070 318.000,296.800 318.180,296.800 318.400 M288.400 322.400 C 288.400 322.620,287.860 322.800,287.200 322.800 C 286.540 322.800,286.000 322.980,286.000 323.200 C 286.000 323.420,285.370 323.600,284.600 323.600 C 283.830 323.600,283.200 323.780,283.200 324.000 C 283.200 324.220,283.830 324.400,284.600 324.400 C 285.370 324.400,286.000 324.220,286.000 324.000 C 286.000 323.780,286.439 323.600,286.976 323.600 C 287.513 323.600,288.064 323.420,288.200 323.200 C 288.336 322.980,288.797 322.800,289.224 322.800 C 289.651 322.800,290.000 322.620,290.000 322.400 C 290.000 322.180,289.640 322.000,289.200 322.000 C 288.760 322.000,288.400 322.180,288.400 322.400 M279.800 324.800 C 279.936 325.020,280.667 325.200,281.424 325.200 C 282.181 325.200,282.800 325.020,282.800 324.800 C 282.800 324.580,282.069 324.400,281.176 324.400 C 280.196 324.400,279.651 324.558,279.800 324.800 M275.000 325.600 C 275.136 325.820,276.126 326.000,277.200 326.000 C 278.274 326.000,279.264 325.820,279.400 325.600 C 279.555 325.350,278.730 325.200,277.200 325.200 C 275.670 325.200,274.845 325.350,275.000 325.600 " stroke="none" fill="#000000" fill-rule="evenodd"></path></g></svg>